<svg width="30" height="30" viewBox="0 0 30 30" fill="none" xmlns="http://www.w3.org/2000/svg">
<ellipse cx="15" cy="14.5842" rx="15" ry="14.5842" fill="#191A23"/>
<path d="M8.01441 17.2073C7.29202 17.6128 7.04929 18.519 7.47227 19.2313C7.89524 19.9436 8.82375 20.1923 9.54614 19.7868L8.78027 18.4971L8.01441 17.2073ZM22.9203 11.7756C23.132 10.9852 22.6471 10.1686 21.8372 9.95164L8.63912 6.41644C7.82923 6.1995 7.00104 6.6644 6.78932 7.45482C6.5776 8.24524 7.06252 9.06186 7.87242 9.2788L19.604 12.4212L16.5372 23.8706C16.3255 24.6611 16.8104 25.4777 17.6203 25.6946C18.4302 25.9116 19.2584 25.4467 19.4701 24.6562L22.9203 11.7756ZM8.78027 18.4971L9.54614 19.7868L22.2197 12.6726L21.4538 11.3828L20.688 10.0931L8.01441 17.2073L8.78027 18.4971Z" fill="white"/>
</svg>
