<svg width="291" height="10" viewBox="0 0 291 10" fill="none" xmlns="http://www.w3.org/2000/svg">
<path d="M2.77179 0.050849C4.40247 -0.0794148 6.54004 0.0598688 8.16456 0.251044C8.67368 0.310336 8.41588 0.575377 8.76733 0.62824C9.4547 0.731291 10.0951 0.601305 10.7744 0.724065C10.9995 0.766045 10.7192 1.18587 10.9553 1.22028C12.2488 1.40582 13.4725 1.29888 14.7828 1.38812C21.2372 1.82843 27.5816 1.98602 34.1149 2.17731C36.2691 2.24002 38.8878 2.62103 41.1128 2.45441C41.3726 2.43458 41.2177 2.06608 41.2671 2.03571C42.0422 1.57075 41.7845 2.31467 42.2906 2.41351C44.2993 2.80377 46.5329 2.83771 48.466 2.69549C49.2884 2.63391 48.4638 1.90198 49.2919 2.3128C49.3494 2.34056 49.1407 2.73188 49.3663 2.77362C49.8777 2.86749 50.8481 2.79755 51.2445 2.82855C52.0085 2.89028 52.1349 2.88635 52.8575 2.89081C53.8453 2.90031 55.0202 3.09483 56.08 3.00616C56.3062 2.98607 56.0067 2.58493 56.3675 2.51666C56.7286 2.44851 57.6839 2.48252 58.006 2.57709C58.3281 2.6717 58.191 2.98699 58.248 3.05926C58.717 3.66925 59.8221 2.82442 59.9642 2.80353C62.5565 2.44753 64.7796 2.9288 67.213 2.92743C69.0603 2.92536 71.0356 2.76648 72.7934 2.78827C74.8875 2.81578 76.6624 3.03315 78.6968 2.99579C78.9115 2.9923 78.6599 2.52065 78.9221 2.51544C81.7081 2.46056 84.4748 2.51197 87.2488 2.83038C87.527 2.86273 87.1685 3.27684 87.4464 3.33392C89.1481 3.67424 91.8407 4.49179 92.8514 2.68878C94.0041 2.75918 95.4035 2.83193 96.4347 3.19537C97.0996 3.42929 96.4538 3.88042 97.2706 3.68792C97.4548 3.64503 97.2153 3.24995 97.4915 3.21551C98.6546 3.07088 99.9254 3.1993 101.076 2.99518C101.31 2.95273 101.246 2.59872 101.312 2.53497C101.87 2.01871 102.797 2.87213 103 2.93414C104.54 3.39658 105.665 3.2146 107.099 3.22589C107.432 3.22871 107.039 2.7532 107.359 2.73883C109.021 2.67068 110.742 2.71155 112.369 2.92254C112.731 2.97062 112.398 3.37567 112.571 3.41937C113.333 3.60712 113.502 2.84209 114.234 3.00738C114.388 3.04125 114.301 3.388 114.329 3.42608C114.769 4.02389 115.152 3.17684 115.265 3.15814C116.697 2.90261 117.612 3.78689 118.996 3.66168C119.161 3.6458 118.788 3.20706 119.254 3.18927C122.353 3.06815 125.631 3.18867 128.699 3.53961C129.176 3.59358 128.836 3.92317 128.866 3.9638C129.355 4.59864 129.671 3.74803 129.827 3.716C131.054 3.48541 132.2 4.19874 133.034 3.1856C138.231 3.5372 143.404 2.96827 148.557 3.87591C148.623 3.88642 148.506 4.30535 148.636 4.32452C150.21 4.55974 149.908 3.90865 150.95 3.11236C151.212 2.91241 152.01 3.8738 152.081 3.94427C152.338 4.20396 152.071 4.8272 152.157 4.87749C152.87 5.27241 152.754 3.21129 153.716 3.21063C153.746 3.21407 153.62 3.59344 153.7 3.63116C153.951 3.74958 154.2 3.59883 154.445 3.72943C155.007 4.03161 155.207 5.03313 156.065 4.45025C156.173 4.3746 156.008 3.20545 156.866 3.26068C157.209 3.28369 158.724 3.26365 159.149 3.33941C159.573 3.41509 159.282 3.79185 159.312 3.80816C160.455 4.30636 160.021 4.51284 160.594 5.25042C161.167 5.98522 161.008 4.23265 161.241 4.03704C161.475 3.84199 162.313 4.25303 162.519 4.39593C162.725 4.53888 162.468 4.77829 162.651 4.85918C163.864 5.38773 163.184 3.98928 163.583 3.71112C164.526 3.05249 165.26 4.35219 166.123 4.47955C166.357 4.51394 166.166 4.21792 166.374 4.19024C167.198 4.08452 167.693 4.49006 168.63 4.11822C168.783 4.05762 169.541 3.27621 170.031 3.84967C170.1 3.93236 169.903 4.25624 170.254 4.32879C170.778 4.43767 171.723 4.50846 172.286 4.4002C172.703 4.3201 172.226 3.78642 172.749 3.9522C172.982 4.02623 172.551 4.33844 172.988 4.45147C173.423 4.56447 174.535 4.55075 174.958 4.53997C175.381 4.52895 175.15 4.12413 175.184 4.09686C175.39 3.94063 176.201 3.74542 176.273 3.74591C179.886 3.69649 183.219 4.37886 186.737 4.15301C187.014 4.13587 186.83 3.70898 186.872 3.70196C187.817 3.5231 187.072 4.65811 187.732 5.03802C187.637 4.17173 188.026 4.32858 188.692 4.23358C189.013 4.18709 188.838 3.85165 188.868 3.81732C189.344 3.30783 189.675 3.9659 189.76 4.10052C190.075 4.59572 190.418 4.01061 190.633 4.34161C190.847 4.67013 190.354 5.15717 190.992 5.15093C191.171 4.84083 190.697 4.03044 191.182 3.8991C193.012 3.40231 196.426 4.03813 197.897 4.10418C199.365 4.17017 199.839 4.11296 200.694 4.22503C202.24 4.42767 201.673 3.82641 202.633 3.5512C203.595 3.27603 203.127 4.75539 203.265 5.07342C203.401 5.3913 203.549 5.06407 203.718 5.23882C203.887 5.41353 203.522 5.62976 203.918 5.69536C204.314 5.7609 205.397 5.19537 205.538 4.86285C205.835 4.15836 205.347 3.41897 206.395 3.67877C206.455 3.69419 206.259 4.08318 206.49 4.12249C208.324 4.42195 210.228 4.44052 212.059 4.70538C212.311 4.7424 212.086 5.17514 212.233 5.20159C213.759 5.47838 213.213 4.74872 214.05 3.93817C213.862 5.01684 214.325 5.67679 215.483 5.68316C216.179 5.68736 216.059 5.21625 216.51 4.88421C216.645 4.78411 217.138 5.1076 217.227 4.88604C217.521 4.1618 217.057 3.35106 218.251 3.67388C218.304 3.68923 218.137 4.08567 218.318 4.10967C219.488 4.26682 219.628 3.50928 220.893 3.41754C221.885 3.34555 223.649 3.80749 224.778 3.88262C224.754 5.09537 225.82 4.81767 226.253 3.9815C226.986 4.01573 227.777 3.96846 228.485 4.08404C228.729 4.12344 228.569 4.47457 228.6 4.5125C229.071 5.10765 229.389 4.29415 229.548 4.26226C231.262 3.95224 232.658 4.56881 234.294 3.96624C234.352 3.94454 234.447 3.10213 234.884 3.71722C234.912 3.75962 234.372 4.1429 235.141 4.17254C235.911 4.20225 237.362 4.65384 238.431 4.26348C238.689 4.16951 239.343 3.48564 239.868 4.01995C239.938 4.09251 239.861 4.33411 239.962 4.46856C240.289 4.89695 240.467 4.04549 240.85 4.76885C241.234 5.49219 242.032 6.03391 243.109 5.53484C243.144 5.52033 243.399 4.84546 243.738 4.85613C244.279 4.87375 245.047 5.01434 245.612 5.00994C245.882 5.00759 245.709 4.58853 245.756 4.58086C247.574 4.34604 248.869 4.71963 250.817 4.88177C251.174 4.91232 252.2 4.34086 252.892 4.79266C253.651 5.28723 252.871 7.34456 254.615 6.85442C255.319 6.65837 256.21 4.04826 257.475 5.40056C259.928 5.06547 262.196 5.75757 264.656 5.2791C264.767 5.25791 265.116 4.52945 265.377 4.53936C265.763 4.55549 265.975 4.89596 266.25 4.91839C267.405 5.02094 268.462 4.72965 269.576 4.77496C269.999 4.79142 269.851 5.14346 270.355 5.16314C270.859 5.18249 271.195 4.71891 271.878 4.9428C272.394 5.11346 272.91 6.06099 273.594 6.17144C273.621 5.2368 274.091 5.25605 274.927 5.00933C275.087 4.96146 274.915 4.63616 274.991 4.59673C275.3 4.42907 275.586 4.69868 275.88 4.51617C275.952 4.47233 275.955 4.15315 276.013 4.0993C276.51 3.62924 277.328 4.34721 277.469 4.47222C278.007 4.94698 278.259 4.53185 278.672 4.7188C279.084 4.90574 278.468 5.13942 278.949 5.25286C279.948 5.48749 281.231 5.43594 282.245 5.45061C282.65 5.45449 282.374 5.02843 282.432 5.0191C283.269 4.91103 284.115 5.36424 284.579 4.51556C285.159 6.70994 285.083 4.30271 286.279 4.742C286.374 4.77753 286.493 5.81523 286.132 5.96758C285.77 6.11978 285.222 5.79541 284.72 6.03289C284.601 6.08862 283.92 7.06101 283.827 7.11992C283.1 7.58027 282.996 6.02956 282.958 5.94439C282.521 5.02523 281.69 6.0728 281.47 6.14519C280.468 6.47687 279.617 6.25878 278.779 6.49553C278.23 6.64854 278.177 7.66432 277.746 7.63322C276.315 7.53046 275.816 6.11344 274.467 7.34209C274.178 7.60413 274.465 8.71434 273.429 7.84135C273.364 7.78632 272.595 6.98769 272.15 7.49284C272.094 7.55653 272.096 7.88009 272.023 7.90727C271.529 8.08308 271.2 7.82532 270.663 7.94877C270.125 8.07223 269.479 8.25627 268.866 8.14653C268.496 8.0809 268.021 7.47808 267.844 7.33049C267.344 6.90533 266.809 7.60241 266.499 7.08757C266.187 6.57014 266.797 5.78433 265.978 5.45C265.948 6.29062 265.878 7.15343 265.829 7.99882C264.035 7.96922 262.269 7.6974 260.469 7.73454C260.246 7.73999 260.474 8.19191 260.235 8.20939C259.225 8.28119 258.343 7.95903 257.296 8.08732C256.486 8.18836 255.597 8.66685 254.75 8.78739C254.232 7.82549 252.975 8.15203 252.061 8.06413C251.741 8.03376 251.763 7.77685 251.535 7.69304C250.676 7.38306 251.079 8.23309 250.843 8.36686C249.834 8.93778 249.747 7.01379 248.557 7.06132C248.494 7.06319 247.723 8.08876 247.616 8.15263C246.942 8.56909 247.505 7.79567 247.082 7.71989C246.311 7.58142 245.776 7.33649 244.871 7.63688C244.607 7.72586 243.975 8.36509 243.463 7.87065C243.395 7.8059 243.432 7.46692 243.378 7.44707C242.396 7.11615 242.371 8.18129 241.81 8.54203C241.248 8.90269 240.382 8.16741 240.206 7.95549C239.744 7.40727 240.559 7.7212 240.584 7.6674C240.878 7.02717 240.246 7.1374 239.763 7.0833C239.693 6.03891 239.017 6.1016 239.262 7.03142C239.29 7.13298 239.666 7.03558 239.763 7.0833C239.339 8.10799 238.596 8.23922 237.777 7.28166C237.393 6.83287 237.756 6.3096 236.59 6.50102C236.061 6.58744 236.265 7.30655 235.799 7.50261C234.732 7.94993 233.346 7.27912 232.246 7.38481C231.847 7.42318 232.236 7.81682 231.963 7.85661C231.239 7.96343 230.601 7.66808 229.874 7.81938C229.808 7.83359 229.969 8.24565 229.743 8.2509C228.029 8.29875 226.537 8.03482 224.748 8.02751C223.883 8.02416 222.337 8.25142 221.442 8.20573C219.89 8.12897 217.98 7.52977 216.654 7.67534C215.789 7.76851 215.979 8.18066 215.608 8.46147C214.893 9.00579 213.628 8.03078 213.457 7.8798C213.452 7.87481 214.196 7.77765 213.799 7.56608C213.568 7.12525 213.465 7.87789 213.457 7.8798C213.345 7.78227 211.858 7.68871 211.563 7.7675C211.403 7.81055 211.493 8.20104 211.409 8.21611C209.421 8.56555 207.43 8.6648 205.413 8.48222C205.378 8.47433 205.431 8.03755 205.348 8.02446C204.181 7.83025 203.433 8.36457 202.471 8.6818C201.508 8.99889 200.745 8.89269 200.175 8.14286C199.449 8.23727 198.407 7.90578 197.807 7.70463C197.208 7.50349 197.124 8.35372 197.071 8.37052C195.426 8.9085 194.475 8.42185 192.767 8.34611C191.956 8.30865 190.346 8.43197 189.467 8.52494C188.773 8.59984 188.354 8.40059 187.714 8.528C187.628 8.54501 187.715 8.92357 187.689 8.93815C186.975 9.39108 187.318 8.46562 187.17 8.30033C186.636 7.69927 186.306 7.37915 185.391 7.66191C185.18 7.72666 184.565 9.0592 184.181 9.13712C183.681 9.236 183.87 8.75837 183.346 8.87406C183.301 8.88353 183.311 9.17819 182.988 9.1652C181.488 9.10877 179.853 8.93731 178.294 8.96684C178.081 8.96974 178.354 9.43712 178.047 9.44901C176.603 9.50442 175.021 9.48712 173.615 9.26835C173.269 9.21303 173.486 8.88578 173.411 8.78861C172.95 8.20069 172.296 9.05493 172.188 9.07121C169.613 9.48171 167.643 8.70864 165.019 9.0767C164.876 9.09831 163.776 10.0141 163.286 9.22868C163.252 9.17642 162.767 8.37289 162.338 8.92228C162.311 8.95665 162.614 9.37033 162.086 9.32816C161.558 9.28609 160.709 9.56234 159.983 9.10783C159.754 8.96465 159.211 8.16309 158.526 8.80204C158.481 8.84665 157.424 10.2914 157.046 9.29459C156.985 9.13051 157.049 8.07566 156.231 8.6165C156.075 8.72135 156.359 8.95663 155.947 9.10355C155.317 9.32999 154.481 9.04747 153.706 9.51737C153.571 9.60056 152.995 10.3165 152.534 9.77311C152.461 9.688 152.599 9.33584 152.355 9.29643C151.196 9.10738 149.982 9.34294 148.805 9.09928C148.388 9.01367 148.601 8.44435 148.167 8.29179C147.732 8.13928 146.856 7.99257 146.402 8.25273C145.947 8.513 146.444 9.42035 145.762 9.49296C142.8 9.8083 139.865 9.27602 136.907 9.19816C136.468 9.18653 136.832 9.51121 136.186 9.51737C133.802 9.54153 129.686 9.84595 127.618 9.15604C125.961 8.60347 128.046 8.18279 126.78 7.95793C126.169 7.85066 125.508 8.90555 125.36 8.93876C123.919 9.27611 122.917 8.80882 121.62 8.95219C121.352 8.98194 121.615 9.40949 121.387 9.43009C120.608 9.50424 119.79 9.3134 119.046 9.3483C118.712 9.36495 118.774 9.6915 118.466 9.6663C117.731 9.60975 117.082 9.47249 116.365 9.16642C116.3 9.13853 116.74 8.73231 116.196 8.7172C115.316 8.69391 114.224 8.39197 113.211 8.70378C112.911 8.79757 112.899 9.5439 112.253 9.02848C112.118 8.92083 112.291 8.02466 111.538 8.79899C111.412 8.92767 110.148 9.9721 109.528 9.29887C109.365 9.12168 108.947 8.38833 108.586 8.50358C108.537 8.52197 108.733 8.92285 108.434 8.96195C107.379 9.09279 106.273 9.05002 105.189 9.17558C104.899 9.2099 105.33 9.62473 104.899 9.66263C103.713 9.76749 102.232 9.66186 101.072 9.53202C100.644 9.48336 100.939 9.13973 100.908 9.10233C100.408 8.49408 100.112 9.31508 99.9459 9.36295C98.9129 9.6496 98.1263 9.26395 97.174 9.366C96.9112 9.39313 97.0976 9.78459 97.0453 9.81949C96.5028 10.1605 96.9069 9.45754 96.5635 9.38004C95.6015 9.16062 94.5291 9.19208 93.5563 9.2421C93.1989 9.26105 93.6006 9.71496 93.2799 9.72672C91.3818 9.80494 89.4087 9.7615 87.5563 9.51127C87.2075 9.46333 87.427 9.11381 87.3543 9.03397C86.8533 8.47545 86.119 9.23728 85.95 9.30985C85.1818 9.64121 84.8834 9.33212 84.205 9.38981C80.8908 9.67705 76.7987 9.47234 73.6703 9.34586C69.5937 9.18309 66.4304 8.85059 62.5429 8.93693C62.2958 8.94198 62.545 9.40695 62.332 9.41727C59.5821 9.52936 56.8749 9.34767 54.1196 9.48197C53.8935 9.49217 54.2194 9.93296 53.8565 9.96415C53.1121 10.0312 52.1692 10.0072 51.4166 9.86649C51.0495 9.79868 51.5419 9.42043 51.1724 9.3599C50.312 9.21809 49.3897 9.1867 48.5059 9.25736C48.1298 9.2884 48.6973 9.73922 48.2084 9.74442C44.8786 9.78915 41.6082 9.86679 38.2433 9.283C38.0126 9.2429 37.8102 8.32665 37.3197 8.50236C37.2827 8.75664 37.2847 9.05576 37.2686 9.32755C32.4211 9.47396 27.6232 9.15633 22.7621 9.10722C22.5571 9.10525 22.9113 9.59073 22.5145 9.58939C20.218 9.58222 17.9879 9.71671 15.6387 9.23417C15.4056 9.18698 15.5252 8.33291 14.8384 8.46208C14.7172 8.48565 13.6827 8.59955 13.4152 8.78495C13.3789 8.81292 13.5676 9.21156 13.2343 9.22318C11.2971 9.28372 9.26697 9.19271 7.33311 8.94914C7.021 8.90906 7.35337 8.48454 7.13107 8.45231C5.55419 8.22696 3.83899 8.54967 2.3322 8.16423C1.32361 7.9047 1.69702 7.17087 1.16107 6.44853C1.08526 6.34662 0.460711 6.33047 0.428414 5.91021C0.345496 4.8534 0.648009 3.69621 0.52388 2.56976C0.497656 2.32713 -0.338778 2.58846 0.156444 2.00214C0.191041 1.9629 0.797459 1.7683 0.946821 1.5694C1.05081 1.43188 0.863417 1.00447 1.07559 0.828434C1.28774 0.652564 1.52088 1.01084 1.87263 0.80402C2.22422 0.594636 2.06962 0.108407 2.77179 0.050849ZM195.107 6.80559C194.552 6.39728 194.47 7.89275 195.071 7.53496C195.1 7.51589 195.136 6.82562 195.107 6.80559ZM262.279 6.56938C261.554 5.90977 261.057 6.87966 261.569 7.38908C262.081 7.89795 262.501 6.76934 262.279 6.56938ZM269.806 6.08782C268.958 5.56775 268.824 7.68839 269.733 7.25969C269.785 7.23546 269.855 6.11802 269.806 6.08782ZM3.64653 6.24285C3.63887 6.22299 3.18992 6.20363 3.17919 6.22331C2.94013 6.69827 3.83785 6.73665 3.64653 6.24285ZM277.274 5.56353C277.01 5.27666 276.247 5.60781 276.576 5.96453C276.841 6.25149 277.604 5.92037 277.274 5.56353ZM166.147 5.20952C166.138 5.18724 165.816 5.16717 165.822 5.29314C165.844 5.69886 166.292 5.58436 166.147 5.20952ZM289.968 5.53911C288.093 5.45929 286.956 3.70754 288.998 3.90521C289.368 3.94097 288.201 4.46383 288.672 4.62176C289.533 4.90948 290.105 3.8096 290.984 4.39898C291.143 4.50686 290.075 5.54756 289.965 5.54155C289.966 5.54074 289.967 5.53993 289.968 5.53911ZM194.788 5.00933C194.777 4.98955 194.331 4.9708 194.32 4.99041C194.079 5.46518 194.977 5.50323 194.788 5.00933ZM147.365 4.28484C147.341 4.2427 146.307 4.20329 146.273 4.24212C145.733 5.0185 147.824 5.10048 147.365 4.28484ZM224.795 3.91497C225.282 3.43735 225.863 3.38112 226.251 3.98089C225.768 3.94905 225.281 3.94436 224.795 3.91497Z" fill="black"/>
</svg>
