<svg width="29" height="29" viewBox="0 0 29 29" fill="none" xmlns="http://www.w3.org/2000/svg">
<path d="M22.3804 9.42358C21.3988 9.42358 20.5644 9.08002 19.8773 8.39289C19.1902 7.70576 18.8466 6.87139 18.8466 5.88977C18.8466 4.90816 19.1902 4.07378 19.8773 3.38665C20.5644 2.69952 21.3988 2.35596 22.3804 2.35596C23.362 2.35596 24.1964 2.69952 24.8835 3.38665C25.5707 4.07378 25.9142 4.90816 25.9142 5.88977C25.9142 6.87139 25.5707 7.70576 24.8835 8.39289C24.1964 9.08002 23.362 9.42358 22.3804 9.42358ZM4.71134 23.5588C4.06348 23.5588 3.50887 23.3282 3.04751 22.8668C2.58615 22.4054 2.35547 21.8508 2.35547 21.203V7.06771C2.35547 6.41984 2.58615 5.86523 3.04751 5.40387C3.50887 4.94251 4.06348 4.71183 4.71134 4.71183H16.6085C16.53 5.10448 16.4907 5.49712 16.4907 5.88977C16.4907 6.28242 16.53 6.67506 16.6085 7.06771C16.7459 7.69594 16.9717 8.28 17.2858 8.81989C17.5999 9.35978 17.9828 9.83586 18.4343 10.2481L14.1348 12.9574L4.71134 7.06771V9.42358L14.1348 15.3133L20.3485 11.4261C20.6822 11.5439 21.016 11.6322 21.3497 11.6911C21.6835 11.75 22.027 11.7795 22.3804 11.7795C23.0086 11.7795 23.6271 11.6813 24.2357 11.485C24.8443 11.2887 25.4038 10.9942 25.9142 10.6015V21.203C25.9142 21.8508 25.6835 22.4054 25.2222 22.8668C24.7608 23.3282 24.2062 23.5588 23.5584 23.5588H4.71134Z" fill="white"/>
</svg>
