<svg width="29" height="29" viewBox="0 0 29 29" fill="none" xmlns="http://www.w3.org/2000/svg">
<path fill-rule="evenodd" clip-rule="evenodd" d="M14.1306 0C10.7748 0.00179531 7.5291 1.22734 4.97379 3.45749C2.41847 5.68764 0.720192 8.77697 0.182618 12.1731C-0.354957 15.5692 0.30322 19.0506 2.03948 21.9948C3.77573 24.9391 6.47684 27.1541 9.6598 28.2439C10.362 28.3783 10.6265 27.9295 10.6265 27.5479C10.6265 27.1664 10.6125 26.06 10.6078 24.8505C6.67539 25.7264 5.84444 23.1394 5.84444 23.1394C5.20308 21.4595 4.27616 21.0179 4.27616 21.0179C2.99344 20.1204 4.37213 20.1372 4.37213 20.1372C5.79295 20.2404 6.53964 21.6323 6.53964 21.6323C7.79895 23.8474 9.84706 23.2066 10.6523 22.8322C10.7787 21.8939 11.1462 21.2555 11.5511 20.8931C8.40987 20.5284 5.10945 19.2852 5.10945 13.732C5.08998 12.2918 5.61125 10.899 6.56538 9.84181C6.42026 9.47703 5.93572 8.00352 6.70348 6.00204C6.70348 6.00204 7.89023 5.61326 10.5914 7.48755C12.9083 6.83794 15.3528 6.83794 17.6697 7.48755C20.3686 5.61326 21.553 6.00204 21.553 6.00204C22.3231 7.99872 21.8386 9.47223 21.6934 9.84181C22.6506 10.8992 23.1729 12.2944 23.1517 13.7368C23.1517 19.302 19.8443 20.5284 16.6983 20.8859C17.2039 21.3371 17.6557 22.2179 17.6557 23.5714C17.6557 25.5105 17.6393 27.0704 17.6393 27.5479C17.6393 27.9343 17.8944 28.3855 18.6107 28.2439C21.7941 27.154 24.4954 24.9385 26.2316 21.9938C27.9679 19.0491 28.6257 15.5671 28.0875 12.1707C27.5493 8.77429 25.8502 5.68493 23.294 3.45516C20.7379 1.22539 17.4914 0.000657354 14.1353 0H14.1306Z" fill="white"/>
</svg>
