<svg width="158" height="58" viewBox="0 0 158 58" fill="none" xmlns="http://www.w3.org/2000/svg">
<g clip-path="url(#clip0_317_315)">
<path fill-rule="evenodd" clip-rule="evenodd" d="M47.7158 18.8953C47.7298 18.9477 47.7369 19.0018 47.737 19.0561V27.4961C47.737 27.6044 47.7088 27.7108 47.6551 27.8045C47.6015 27.8983 47.5244 27.976 47.4315 28.0299L40.4327 32.1084V40.1922C40.4327 40.4122 40.3172 40.6153 40.1287 40.7261L25.5192 49.2384C25.4858 49.2576 25.4493 49.2699 25.4128 49.283C25.3991 49.2876 25.3862 49.2961 25.3718 49.2999C25.2696 49.3271 25.1623 49.3271 25.0602 49.2999C25.0434 49.2953 25.0282 49.2861 25.0123 49.2799C24.9788 49.2676 24.9439 49.2568 24.912 49.2384L10.3055 40.7261C10.2127 40.6721 10.1356 40.5943 10.082 40.5006C10.0284 40.4069 10.0001 40.3005 10 40.1922V14.8722C10 14.8168 10.0076 14.763 10.0213 14.7107C10.0258 14.693 10.0365 14.6768 10.0426 14.6591C10.054 14.6268 10.0646 14.5937 10.0813 14.5637C10.0927 14.5437 10.1094 14.5276 10.1231 14.5091C10.1406 14.4845 10.1566 14.4591 10.1771 14.4376C10.1946 14.4199 10.2174 14.4068 10.2371 14.3914C10.2592 14.373 10.2789 14.353 10.304 14.3384L17.6084 10.0822C17.7008 10.0283 17.8057 10 17.9124 10C18.0191 10 18.1239 10.0283 18.2164 10.0822L25.52 14.3384H25.5215C25.5458 14.3537 25.5663 14.373 25.5884 14.3907C25.6081 14.4061 25.6302 14.4199 25.6476 14.4368C25.6689 14.4591 25.6841 14.4845 25.7024 14.5091C25.7153 14.5276 25.7328 14.5437 25.7434 14.5637C25.7609 14.5945 25.7708 14.6268 25.7829 14.6591C25.789 14.6768 25.7996 14.693 25.8042 14.7114C25.8182 14.7639 25.8253 14.8179 25.8255 14.8722V30.6868L31.9116 27.1399V19.0553C31.9116 19.0014 31.9192 18.9468 31.9328 18.8953C31.9382 18.8768 31.948 18.8607 31.9541 18.843C31.9663 18.8107 31.9769 18.7776 31.9936 18.7476C32.005 18.7276 32.0218 18.7114 32.0347 18.693C32.0529 18.6684 32.0681 18.643 32.0894 18.6214C32.1069 18.6037 32.1289 18.5907 32.1487 18.5753C32.1715 18.5568 32.1912 18.5368 32.2156 18.5222L39.5207 14.2661C39.6131 14.2121 39.718 14.1837 39.8247 14.1837C39.9314 14.1837 40.0362 14.2121 40.1287 14.2661L47.4323 18.5222C47.4581 18.5376 47.4779 18.5568 47.5007 18.5745C47.5197 18.5899 47.5417 18.6037 47.5592 18.6207C47.5805 18.643 47.5957 18.6684 47.6139 18.693C47.6276 18.7114 47.6443 18.7276 47.655 18.7476C47.6724 18.7776 47.6823 18.8107 47.6945 18.843C47.7013 18.8607 47.7112 18.8768 47.7158 18.8953ZM46.5195 27.1399V20.1214L43.9636 21.6107L40.4327 23.6684V30.6868L46.5203 27.1399H46.5195ZM39.2159 39.8361V32.813L35.7427 34.8207L25.8247 40.5499V47.6391L39.2159 39.8361ZM11.2175 15.9376V39.8361L24.6072 47.6384V40.5507L17.6122 36.5437L17.6099 36.5422L17.6068 36.5407C17.5833 36.5268 17.5635 36.5068 17.5415 36.4899C17.5225 36.4745 17.5004 36.4622 17.4837 36.4453L17.4822 36.443C17.4624 36.4237 17.4488 36.3999 17.432 36.3784C17.4168 36.3576 17.3986 36.3399 17.3864 36.3184L17.3857 36.3161C17.372 36.293 17.3636 36.2653 17.3538 36.2391C17.3439 36.2161 17.331 36.1945 17.3249 36.1699C17.3173 36.1407 17.3158 36.1091 17.3127 36.0791C17.3097 36.0561 17.3036 36.033 17.3036 36.0099V36.0084V19.4845L13.7734 17.4261L11.2175 15.9376ZM17.9131 11.3268L11.8278 14.8722L17.9116 18.4176L23.9962 14.8714L17.9116 11.3268H17.9131ZM21.0778 33.453L24.608 31.3961V15.9376L22.0521 17.4268L18.5211 19.4845V34.943L21.0778 33.453ZM39.8247 15.5107L33.7401 19.0561L39.8247 22.6014L45.9085 19.0553L39.8247 15.5107ZM39.2159 23.6684L35.685 21.6107L33.1291 20.1214V27.1399L36.6593 29.1968L39.2159 30.6868V23.6684ZM25.2152 39.4845L34.1399 34.3276L38.6011 31.7507L32.5211 28.2076L25.5207 32.2868L19.1405 36.0045L25.2152 39.4845Z" fill="#0D0C22" fill-opacity="0.63"/>
</g>
<path d="M63.4613 33.336H68.9813V36H60.1013V19.248H63.4613V33.336ZM70.2529 29.304C70.2529 27.96 70.5169 26.768 71.0449 25.728C71.5889 24.688 72.3169 23.888 73.2289 23.328C74.1569 22.768 75.1889 22.488 76.3249 22.488C77.3169 22.488 78.1809 22.688 78.9169 23.088C79.6689 23.488 80.2689 23.992 80.7169 24.6V22.704H84.1009V36H80.7169V34.056C80.2849 34.68 79.6849 35.2 78.9169 35.616C78.1649 36.016 77.2929 36.216 76.3009 36.216C75.1809 36.216 74.1569 35.928 73.2289 35.352C72.3169 34.776 71.5889 33.968 71.0449 32.928C70.5169 31.872 70.2529 30.664 70.2529 29.304ZM80.7169 29.352C80.7169 28.536 80.5569 27.84 80.2369 27.264C79.9169 26.672 79.4849 26.224 78.9409 25.92C78.3969 25.6 77.8129 25.44 77.1889 25.44C76.5649 25.44 75.9889 25.592 75.4609 25.896C74.9329 26.2 74.5009 26.648 74.1649 27.24C73.8449 27.816 73.6849 28.504 73.6849 29.304C73.6849 30.104 73.8449 30.808 74.1649 31.416C74.5009 32.008 74.9329 32.464 75.4609 32.784C76.0049 33.104 76.5809 33.264 77.1889 33.264C77.8129 33.264 78.3969 33.112 78.9409 32.808C79.4849 32.488 79.9169 32.04 80.2369 31.464C80.5569 30.872 80.7169 30.168 80.7169 29.352ZM90.7426 24.768C91.1746 24.064 91.7346 23.512 92.4226 23.112C93.1266 22.712 93.9266 22.512 94.8226 22.512V26.04H93.9346C92.8786 26.04 92.0786 26.288 91.5346 26.784C91.0066 27.28 90.7426 28.144 90.7426 29.376V36H87.3826V22.704H90.7426V24.768ZM96.2217 29.304C96.2217 27.96 96.4857 26.768 97.0137 25.728C97.5577 24.688 98.2857 23.888 99.1977 23.328C100.126 22.768 101.158 22.488 102.294 22.488C103.286 22.488 104.15 22.688 104.886 23.088C105.638 23.488 106.238 23.992 106.686 24.6V22.704H110.07V36H106.686V34.056C106.254 34.68 105.654 35.2 104.886 35.616C104.134 36.016 103.262 36.216 102.27 36.216C101.15 36.216 100.126 35.928 99.1977 35.352C98.2857 34.776 97.5577 33.968 97.0137 32.928C96.4857 31.872 96.2217 30.664 96.2217 29.304ZM106.686 29.352C106.686 28.536 106.526 27.84 106.206 27.264C105.886 26.672 105.454 26.224 104.91 25.92C104.366 25.6 103.782 25.44 103.158 25.44C102.534 25.44 101.958 25.592 101.43 25.896C100.902 26.2 100.47 26.648 100.134 27.24C99.8137 27.816 99.6537 28.504 99.6537 29.304C99.6537 30.104 99.8137 30.808 100.134 31.416C100.47 32.008 100.902 32.464 101.43 32.784C101.974 33.104 102.55 33.264 103.158 33.264C103.782 33.264 104.366 33.112 104.91 32.808C105.454 32.488 105.886 32.04 106.206 31.464C106.526 30.872 106.686 30.168 106.686 29.352ZM118.895 32.904L122.255 22.704H125.831L120.911 36H116.831L111.935 22.704H115.535L118.895 32.904ZM140.079 29.064C140.079 29.544 140.047 29.976 139.983 30.36H130.263C130.343 31.32 130.679 32.072 131.271 32.616C131.863 33.16 132.591 33.432 133.455 33.432C134.703 33.432 135.591 32.896 136.119 31.824H139.743C139.359 33.104 138.623 34.16 137.535 34.992C136.447 35.808 135.111 36.216 133.527 36.216C132.247 36.216 131.095 35.936 130.071 35.376C129.063 34.8 128.271 33.992 127.695 32.952C127.135 31.912 126.854 30.712 126.854 29.352C126.854 27.976 127.135 26.768 127.695 25.728C128.255 24.688 129.039 23.888 130.047 23.328C131.055 22.768 132.215 22.488 133.527 22.488C134.791 22.488 135.919 22.76 136.911 23.304C137.919 23.848 138.695 24.624 139.239 25.632C139.799 26.624 140.079 27.768 140.079 29.064ZM136.599 28.104C136.583 27.24 136.271 26.552 135.663 26.04C135.055 25.512 134.311 25.248 133.431 25.248C132.599 25.248 131.895 25.504 131.319 26.016C130.759 26.512 130.415 27.208 130.287 28.104H136.599ZM145.891 18.24V36H142.531V18.24H145.891Z" fill="black" fill-opacity="0.63"/>
<defs>
<clipPath id="clip0_317_315">
<rect width="38" height="40" fill="white" transform="translate(10 10)"/>
</clipPath>
</defs>
</svg>
