<svg width="29" height="29" viewBox="0 0 29 29" fill="none" xmlns="http://www.w3.org/2000/svg">
<g clip-path="url(#clip0_393_443)">
<path d="M26.1836 0H2.08691C1.53343 0 1.00262 0.219871 0.611243 0.611243C0.219871 1.00262 0 1.53343 0 2.08691V26.1836C0 26.7371 0.219871 27.2679 0.611243 27.6593C1.00262 28.0506 1.53343 28.2705 2.08691 28.2705H26.1836C26.7371 28.2705 27.2679 28.0506 27.6593 27.6593C28.0506 27.2679 28.2705 26.7371 28.2705 26.1836V2.08691C28.2705 1.53343 28.0506 1.00262 27.6593 0.611243C27.2679 0.219871 26.7371 0 26.1836 0ZM8.42618 24.0829H4.17579V10.5818H8.42618V24.0829ZM6.29804 8.71085C5.81591 8.70814 5.34538 8.56266 4.94585 8.29279C4.54631 8.02291 4.23568 7.64073 4.05314 7.19448C3.8706 6.74823 3.82435 6.2579 3.92021 5.78539C4.01608 5.31287 4.24977 4.87934 4.59178 4.53952C4.9338 4.19969 5.36882 3.96879 5.84194 3.87596C6.31506 3.78313 6.80508 3.83253 7.25015 4.01793C7.69522 4.20333 8.0754 4.51641 8.3427 4.91767C8.61001 5.31893 8.75246 5.79038 8.75208 6.27252C8.75663 6.59531 8.69614 6.91572 8.57422 7.21464C8.45231 7.51356 8.27146 7.78487 8.04245 8.01241C7.81345 8.23995 7.54098 8.41905 7.24128 8.53905C6.94159 8.65904 6.6208 8.71747 6.29804 8.71085ZM24.0928 24.0947H19.8443V16.7189C19.8443 14.5436 18.9196 13.8722 17.726 13.8722C16.4656 13.8722 15.2288 14.8224 15.2288 16.7738V24.0947H10.9784V10.5916H15.0658V12.4626H15.1208C15.5311 11.6321 16.9682 10.2127 19.1611 10.2127C21.5327 10.2127 24.0947 11.6204 24.0947 15.7431L24.0928 24.0947Z" fill="white"/>
</g>
<defs>
<clipPath id="clip0_393_443">
<rect width="28.2705" height="28.2705" fill="white"/>
</clipPath>
</defs>
</svg>
