<svg width="120" height="52" viewBox="0 0 120 52" fill="none" xmlns="http://www.w3.org/2000/svg">
<path fill-rule="evenodd" clip-rule="evenodd" d="M17.0048 43.4322H19.8165V32.7531L24.2076 42.0639C24.705 43.1831 25.4195 43.5977 26.8031 43.5977C28.1866 43.5977 28.8585 43.1827 29.3724 42.0639L33.7416 32.7531V43.4322H36.5751V32.7531C36.5751 31.7166 36.1422 31.2179 35.2338 30.9484C33.0925 30.3265 31.6649 30.8656 31.0162 32.2544L26.7124 41.4616L22.5594 32.2544C21.9321 30.8656 20.4826 30.3265 18.32 30.9484C17.4329 31.2179 17.0005 31.7162 17.0005 32.7531L17 43.4322H17.0048ZM38.9156 34.7437H41.7491V40.6124C41.7278 40.9438 41.8572 41.6907 43.3973 41.7107C44.1972 41.7316 49.4968 41.7107 49.5394 41.7107V34.7019H52.3729V44.3032C52.3729 46.6671 49.3188 47.1848 47.8956 47.2062H38.9854V45.4029H47.9183C49.7353 45.216 49.5191 44.3455 49.5191 44.055V43.3495H43.5273C40.7369 43.3286 38.9413 42.1467 38.9205 40.7988V34.7428L38.9156 34.7437ZM99.6936 27.9417C97.9639 27.8999 96.622 28.0663 95.4974 28.5227C95.1735 28.6482 94.6539 28.6482 94.6112 29.0414C94.7843 29.2064 94.8051 29.4764 94.9568 29.7051C95.2162 30.1201 95.6709 30.6793 96.0815 30.9693C96.5362 31.3016 96.9905 31.633 97.4655 31.9235C98.309 32.4208 99.2607 32.7113 100.082 33.209C100.558 33.4995 101.034 33.8727 101.51 34.1841C101.752 34.3501 101.899 34.6201 102.202 34.7233V34.6605C102.051 34.4746 102.007 34.2051 101.857 33.9968C101.64 33.79 101.424 33.6027 101.207 33.3959C100.58 32.5872 99.8012 31.8816 98.9577 31.3016C98.2654 30.8452 96.7519 30.2233 96.4708 29.4564L96.4281 29.4146C96.9032 29.3728 97.4655 29.2069 97.9202 29.0823C98.6561 28.8964 99.3261 28.9373 100.082 28.7509C100.429 28.6673 100.775 28.5641 101.121 28.4604V28.2745C100.732 27.9013 100.451 27.4035 100.04 27.0512C98.9373 26.1389 97.7254 25.247 96.4708 24.5005C95.8003 24.086 94.935 23.8159 94.2214 23.4641C93.9611 23.3395 93.5292 23.2773 93.3779 23.07C92.9877 22.6145 92.772 22.0126 92.4908 21.473C91.864 20.3324 91.258 19.0678 90.7175 17.865C90.3282 17.0562 90.0897 16.2475 89.6146 15.5011C87.3866 11.9758 84.9637 9.84014 81.2436 7.7454C80.4437 7.3099 79.4921 7.1226 78.4804 6.89486L76.8583 6.8112C76.5117 6.66619 76.1661 6.27206 75.8631 6.08522C74.6303 5.33879 71.4507 3.72137 70.5417 5.85748C69.9576 7.20533 71.407 8.53226 71.8991 9.21688C72.2675 9.69373 72.7426 10.2329 73.0029 10.772C73.1483 11.1243 73.1968 11.498 73.3486 11.8712C73.6942 12.7836 74.019 13.8 74.4732 14.6506C74.7156 15.0861 74.9701 15.5429 75.2731 15.9366C75.4462 16.1643 75.7492 16.2684 75.8136 16.6417C75.5106 17.0567 75.4898 17.6781 75.3167 18.1973C74.5377 20.5407 74.8407 23.4436 75.9436 25.1642C76.2902 25.6825 77.107 26.8235 78.2152 26.3875C79.1886 26.0143 78.9714 24.8324 79.2526 23.7955C79.3181 23.5468 79.2744 23.3809 79.4039 23.2145V23.2563L80.291 24.9774C80.9614 25.9934 82.1297 27.0512 83.1027 27.7568C83.6214 28.13 84.0325 28.7732 84.6811 29.001V28.9382H84.6384C84.5085 28.7523 84.3136 28.6687 84.1406 28.5236C83.7513 28.1504 83.3189 27.694 83.0159 27.2794C82.1079 26.1184 81.3081 24.8324 80.594 23.5055C80.2474 22.8627 79.9444 22.1576 79.6642 21.5148C79.5333 21.2657 79.5333 20.892 79.3176 20.7684C78.9928 21.2239 78.5177 21.6189 78.2787 22.1785C77.8676 23.07 77.825 24.1692 77.6737 25.3097C77.5864 25.3306 77.6252 25.3097 77.5865 25.3516C76.8952 25.1861 76.6567 24.501 76.3973 23.921C75.7487 22.4486 75.6401 20.0847 76.2024 18.3841C76.3537 17.9486 77.0033 16.5798 76.7439 16.1653C76.613 15.7711 76.1816 15.5434 75.9431 15.232C75.6619 14.8379 75.3599 14.3406 75.165 13.9051C74.6463 12.7431 74.3869 11.458 73.8241 10.2965C73.5638 9.75741 73.1101 9.19735 72.7421 8.70004C72.331 8.13999 71.8778 7.74586 71.553 7.08263C71.4449 6.85489 71.2936 6.48121 71.4667 6.23209C71.5093 6.06616 71.5966 6.00435 71.7687 5.96252C72.0499 5.73478 72.8507 6.0248 73.1319 6.14843C73.9317 6.45983 74.6022 6.74985 75.2726 7.18488C75.5756 7.39217 75.9004 7.7863 76.2897 7.89041H76.7444C77.4366 8.03542 78.2147 7.93224 78.8629 8.11815C80.0093 8.47138 81.0472 8.98913 81.978 9.54965C84.811 11.2707 87.1476 13.7178 88.726 16.6421C88.9854 17.119 89.0935 17.5545 89.332 18.0523C89.7867 19.0687 90.3491 20.1052 90.8023 21.1012C91.257 22.0758 91.6895 23.0718 92.3381 23.8805C92.6629 24.316 93.9601 24.5438 94.5438 24.772C94.9767 24.9579 95.6467 25.1252 96.0369 25.3529C96.7718 25.7884 97.5072 26.2862 98.199 26.7631C98.5446 27.0113 99.6267 27.53 99.6911 27.9436L99.6936 27.9417ZM77.6364 9.92147C77.3376 9.91894 77.0396 9.95378 76.7502 10.0251V10.0669H76.7929C76.9659 10.3988 77.2689 10.627 77.4851 10.9175L77.983 11.913L78.0257 11.8712C78.3286 11.6639 78.4804 11.3321 78.4804 10.8348C78.3504 10.6897 78.3291 10.5443 78.221 10.3993C78.0911 10.192 77.8099 10.0869 77.6364 9.92147Z" fill="#0D0C22" fill-opacity="0.63"/>
<path fill-rule="evenodd" clip-rule="evenodd" d="M54.5322 43.4324H62.6648C63.6164 43.4324 64.5253 43.2465 65.2603 42.9142C66.493 42.375 67.0772 41.65 67.0772 40.6958V38.7052C67.0772 37.9383 66.4067 37.2118 65.0663 36.7145C64.3741 36.4659 63.5088 36.3204 62.6653 36.3204H59.2476C58.1011 36.3204 57.5606 35.9881 57.4089 35.263C57.3875 35.1803 57.3875 35.0971 57.3875 35.0144V33.7906C57.3875 33.7279 57.3875 33.6456 57.4089 33.5629C57.5601 33.0028 57.8631 32.8574 58.8632 32.7542H67.1901V30.9495H59.2738C58.1273 30.9495 57.5218 31.0122 56.9808 31.1781C55.3151 31.6754 54.5797 32.4637 54.5797 33.8524V35.4294C54.5797 36.6518 56.0074 37.6896 58.4298 37.9383C58.6892 37.9592 58.9703 37.9592 59.2515 37.9592H62.1718C62.2799 37.9592 62.3875 37.9592 62.4738 37.9801C63.3609 38.0628 63.7502 38.2079 64.0095 38.5183C64.1826 38.6843 64.2262 38.8297 64.2262 39.0166V40.5922C64.2262 40.7781 64.0963 41.0281 63.837 41.2349C63.5776 41.4418 63.1656 41.5872 62.625 41.6082C62.5169 41.6082 62.4529 41.6291 62.3439 41.6291H54.5322V43.4324ZM84.6827 40.3017C84.6827 42.1468 86.137 43.1833 89.0311 43.3915C89.3123 43.4124 89.5716 43.4324 89.8528 43.4324H97.2068V41.6291H89.7883C88.1435 41.6291 87.5167 41.2349 87.5167 40.2812V30.9495H84.6774V40.3021L84.6827 40.3017ZM68.8718 40.3839V33.9561C68.8718 32.3178 70.0828 31.3217 72.4412 31.0113C72.7006 30.9904 72.9599 30.9694 73.1974 30.9694H78.561C78.8421 30.9694 79.0806 30.9904 79.3618 31.0113C81.7193 31.3217 82.9084 32.3173 82.9084 33.9561V40.3839C82.9084 41.7109 82.4115 42.4164 81.2427 42.8937L84.0108 45.2985H80.7454L78.496 43.3497L76.2244 43.4742H73.1965C72.6416 43.4716 72.0894 43.4021 71.5526 43.2674C69.7589 42.7896 68.8718 41.8777 68.8718 40.3839ZM71.921 40.2399C71.921 40.3226 71.9695 40.4049 71.9865 40.5094C72.1377 41.2554 72.8726 41.6704 73.9973 41.6704H76.5501L74.2145 39.638H77.4799L79.5344 41.4218C79.9246 41.214 80.1622 40.9235 80.2485 40.5503C80.2703 40.4676 80.2703 40.3644 80.2703 40.2808V34.1216C80.2703 34.0388 80.2703 33.9566 80.2485 33.8729C80.0972 33.1683 79.3623 32.7746 78.259 32.7746H73.9978C72.7432 32.7746 71.9215 33.2929 71.9215 34.1216L71.921 40.2399Z" fill="#0D0C22" fill-opacity="0.63"/>
</svg>
