<svg width="98" height="52" viewBox="0 0 98 52" fill="none" xmlns="http://www.w3.org/2000/svg">
<g clip-path="url(#clip0_317_281)">
<mask id="mask0_317_281" style="mask-type:luminance" maskUnits="userSpaceOnUse" x="1" y="1" width="96" height="50">
<path d="M1.37793 26.0001C1.37793 39.6107 22.6995 50.6445 48.9999 50.6445C75.3003 50.6445 96.622 39.6107 96.622 26.0001C96.622 12.3897 75.3003 1.35571 48.9999 1.35571C22.6995 1.35571 1.37793 12.3897 1.37793 26.0001Z" fill="white"/>
</mask>
<g mask="url(#mask0_317_281)">
<path d="M1.37793 26.0001C1.37793 39.6107 22.6995 50.6445 48.9999 50.6445C75.3003 50.6445 96.622 39.6107 96.622 26.0001C96.622 12.3897 75.3003 1.35571 48.9999 1.35571C22.6995 1.35571 1.37793 12.3897 1.37793 26.0001Z" fill="url(#paint0_radial_317_281)" fill-opacity="0.63"/>
</g>
<mask id="mask1_317_281" style="mask-type:luminance" maskUnits="userSpaceOnUse" x="-1" y="-2" width="100" height="56">
<path d="M-0.606445 -1.45061H98.606V53.4507H-0.606445V-1.45061Z" fill="white"/>
</mask>
<g mask="url(#mask1_317_281)">
<path d="M49 48.8147C74.2732 48.8147 94.7617 38.6002 94.7617 26C94.7617 13.4 74.2732 3.18528 49 3.18528C23.7268 3.18528 3.23828 13.4 3.23828 26C3.23828 38.6002 23.7268 48.8147 49 48.8147Z" fill="#0D0C22" fill-opacity="0.63"/>
</g>
<mask id="mask2_317_281" style="mask-type:luminance" maskUnits="userSpaceOnUse" x="-1" y="-2" width="100" height="56">
<path d="M-0.606445 -1.45061H98.606V53.4507H-0.606445V-1.45061Z" fill="white"/>
</mask>
<g mask="url(#mask2_317_281)">
<path d="M27.2509 28.8287C29.329 28.8287 30.8804 28.4517 31.862 27.7085C32.8331 26.9729 33.5038 25.6985 33.8554 23.9208C34.1832 22.2592 34.0583 21.099 33.4844 20.4729C32.8975 19.8334 31.6288 19.509 29.7134 19.509H26.3924L24.5513 28.8287H27.2509ZM16.3887 40.3088C16.2345 40.3088 16.0881 40.2411 15.9901 40.1238C15.8919 40.0067 15.8521 39.8525 15.8816 39.7036L20.7609 15.0063C20.8081 14.7675 21.0208 14.595 21.2682 14.595H31.7843C35.0893 14.595 37.5493 15.4779 39.0956 17.2193C40.6501 18.9699 41.1301 21.4169 40.5223 24.4922C40.2749 25.7451 39.8495 26.9087 39.2578 27.9505C38.6655 28.9934 37.8826 29.9584 36.9306 30.8192C35.7911 31.8684 34.5013 32.6293 33.1006 33.0769C31.7221 33.5187 29.9518 33.7427 27.8389 33.7427H23.5807L22.3647 39.8974C22.3175 40.1363 22.1049 40.3088 21.8576 40.3088H16.3887Z" fill="#0D0C22" fill-opacity="0.63"/>
<path d="M26.8185 20.0173H29.7136C32.0253 20.0173 32.8283 20.5164 33.1011 20.8138C33.5538 21.3075 33.6392 22.3486 33.3483 23.8243C33.0214 25.4765 32.4154 26.6479 31.547 27.3057C30.6578 27.979 29.2124 28.3203 27.251 28.3203H25.1783L26.8185 20.0173ZM31.7845 14.0866H21.2681C20.7735 14.0866 20.3482 14.4316 20.2538 14.9093L15.3745 39.6066C15.3156 39.9047 15.3951 40.2129 15.5913 40.4472C15.7877 40.6816 16.0802 40.8171 16.3888 40.8171H21.8576C22.3524 40.8171 22.7777 40.4721 22.8721 39.9945L24.0068 34.251H27.8391C30.0062 34.251 31.8307 34.0185 33.2611 33.5602C34.7323 33.09 36.0858 32.2927 37.2837 31.1906C38.2745 30.2939 39.0906 29.2874 39.7089 28.1987C40.3274 27.1096 40.7718 25.8952 41.0297 24.5891C41.6696 21.3519 41.1497 18.7597 39.4848 16.8849C37.8361 15.0281 35.2452 14.0866 31.7845 14.0866ZM23.9245 29.337H27.251C29.4559 29.337 31.0983 28.9285 32.1774 28.1112C33.2567 27.2938 33.9846 25.9296 34.3628 24.0179C34.7247 22.1824 34.5599 20.8871 33.8683 20.1326C33.1759 19.378 31.7912 19.0007 29.7136 19.0007H25.9666L23.9245 29.337ZM31.7845 15.1033C34.9481 15.1033 37.256 15.9201 38.7066 17.5537C40.1571 19.1874 40.5939 21.4677 40.0152 24.3952C39.7769 25.6012 39.3741 26.7038 38.8069 27.7027C38.239 28.7023 37.4975 29.6163 36.5811 30.445C35.4891 31.4504 34.276 32.1668 32.9411 32.5935C31.6062 33.0213 29.906 33.2343 27.8391 33.2343H23.1547L21.8576 39.8004H16.3888L21.2681 15.1033H31.7845Z" fill="white"/>
<path d="M53.0611 33.7427C52.9067 33.7427 52.7605 33.6749 52.6625 33.5576C52.5641 33.4405 52.5243 33.2865 52.5538 33.1374L54.7122 22.2098C54.9175 21.1706 54.8669 20.4247 54.5697 20.1095C54.3879 19.9169 53.8415 19.5937 52.226 19.5937H48.3157L45.602 33.3313C45.5548 33.5702 45.3421 33.7427 45.0948 33.7427H39.6691C39.5148 33.7427 39.3685 33.6749 39.2704 33.5576C39.1722 33.4405 39.1324 33.2864 39.1618 33.1374L44.0412 8.44012C44.0884 8.20137 44.3011 8.02887 44.5484 8.02887H49.9741C50.1284 8.02887 50.2747 8.09665 50.3729 8.21374C50.471 8.331 50.5108 8.48503 50.4814 8.63414L49.3039 14.595H53.5104C56.715 14.595 58.8881 15.1508 60.1537 16.2942C61.4438 17.4607 61.8464 19.3258 61.3503 21.8384L59.0801 33.3313C59.0329 33.5702 58.8204 33.7427 58.5729 33.7427H53.0611Z" fill="#0D0C22" fill-opacity="0.63"/>
<path d="M49.9743 7.52049H44.5486C44.0537 7.52049 43.6285 7.86548 43.5341 8.34316L38.6547 33.0404C38.5958 33.3385 38.6754 33.6467 38.8718 33.8811C39.0681 34.1154 39.3606 34.251 39.6693 34.251H45.0949C45.5896 34.251 46.0151 33.906 46.1095 33.4283L48.7419 20.102H52.2262C53.8389 20.102 54.1774 20.4409 54.191 20.4555C54.2888 20.559 54.4175 21.0386 54.2051 22.1129L52.0467 33.0404C51.9878 33.3385 52.0674 33.6467 52.2637 33.8811C52.4601 34.1154 52.7526 34.251 53.0612 34.251H58.573C59.0677 34.251 59.4931 33.906 59.5875 33.4283L61.8575 21.9355C62.3903 19.2377 61.9345 17.214 60.5035 15.92C59.138 14.6863 56.8506 14.0866 53.5106 14.0866H49.9307L50.9888 8.7312C51.0475 8.43314 50.9681 8.12474 50.7718 7.89056C50.5754 7.65622 50.2829 7.52049 49.9743 7.52049ZM49.9743 8.53718L48.6771 15.1033H53.5106C56.5519 15.1033 58.6497 15.6255 59.8042 16.6687C60.9588 17.7125 61.3046 19.4037 60.8432 21.7416L58.573 33.2343H53.0612L55.2196 22.3069C55.4652 21.0638 55.375 20.2159 54.9485 19.7638C54.5218 19.3117 53.6143 19.0853 52.2262 19.0853H47.8898L45.0949 33.2343H39.6693L44.5486 8.53718H49.9743Z" fill="white"/>
<path d="M69.9354 28.8287C72.0135 28.8287 73.5649 28.4517 74.5466 27.7085C75.5177 26.9731 76.1884 25.6987 76.5401 23.9208C76.8679 22.2592 76.743 21.099 76.1689 20.4729C75.5821 19.8334 74.3133 19.509 72.398 19.509H69.077L67.2358 28.8287H69.9354ZM59.0734 40.3088C58.9192 40.3088 58.7728 40.2411 58.6748 40.1238C58.5766 40.0067 58.5367 39.8525 58.5661 39.7036L63.4454 15.0063C63.4928 14.7675 63.7054 14.595 63.9529 14.595H74.4689C77.7741 14.595 80.2339 15.4779 81.7803 17.2193C83.3348 18.9697 83.8147 21.4167 83.207 24.4922C82.9593 25.7451 82.534 26.9087 81.9424 27.9505C81.35 28.9934 80.5672 29.9584 79.6152 30.8192C78.4756 31.8684 77.1859 32.6293 75.7852 33.0769C74.4067 33.5187 72.6364 33.7427 70.5235 33.7427H66.2651L65.0496 39.8974C65.0022 40.1363 64.7896 40.3088 64.5421 40.3088H59.0734Z" fill="#0D0C22" fill-opacity="0.63"/>
<path d="M69.5029 20.0173H72.398C74.7097 20.0173 75.5127 20.5164 75.7855 20.8138C76.2383 21.3075 76.3238 22.3486 76.0327 23.8242C75.7058 25.4765 75.0996 26.6479 74.2314 27.3057C73.3422 27.979 71.8968 28.3203 69.9354 28.3203H67.8628L69.5029 20.0173ZM74.4689 14.0866H63.9527C63.458 14.0866 63.0328 14.4316 62.9384 14.9093L58.059 39.6066C58.0001 39.9047 58.0797 40.2129 58.2759 40.4472C58.4723 40.6816 58.7647 40.8171 59.0734 40.8171H64.5421C65.0368 40.8171 65.4623 40.4721 65.5566 39.9945L66.6912 34.251H70.5235C72.6906 34.251 74.515 34.0185 75.9455 33.5602C77.4167 33.09 78.7705 32.2925 79.9685 31.1903C80.9592 30.2937 81.775 29.2874 82.3933 28.1987C83.0118 27.1096 83.4562 25.8952 83.7141 24.5891C84.354 21.3517 83.8341 18.7595 82.1692 16.8848C80.5205 15.0281 77.9298 14.0866 74.4689 14.0866ZM66.6091 29.337H69.9354C72.1403 29.337 73.7827 28.9285 74.8618 28.1112C75.9412 27.2938 76.669 25.9296 77.0472 24.0179C77.4093 22.1824 77.2444 20.8871 76.5527 20.1326C75.8603 19.378 74.4756 19.0007 72.398 19.0007H68.651L66.6091 29.337ZM74.4689 15.1033C77.6325 15.1033 79.9404 15.9201 81.391 17.5537C82.8417 19.1874 83.2783 21.4677 82.6996 24.3952C82.4613 25.6012 82.0585 26.7038 81.4913 27.7027C80.9234 28.7023 80.1819 29.6163 79.2655 30.445C78.1735 31.4504 76.9604 32.1668 75.6255 32.5935C74.2906 33.0213 72.5904 33.2343 70.5235 33.2343H65.8391L64.5421 39.8004H59.0734L63.9527 15.1033H74.4689Z" fill="white"/>
</g>
</g>
<defs>
<radialGradient id="paint0_radial_317_281" cx="0" cy="0" r="1" gradientUnits="userSpaceOnUse" gradientTransform="translate(29.9704 10.0199) scale(62.5345 61.5196)">
<stop stop-color="#AEB2D5"/>
<stop offset="0.3" stop-color="#AEB2D5"/>
<stop offset="0.75" stop-color="#484C89"/>
<stop offset="1" stop-color="#484C89"/>
</radialGradient>
<clipPath id="clip0_317_281">
<rect width="98" height="52" fill="white"/>
</clipPath>
</defs>
</svg>
