<svg width="130" height="56" viewBox="0 0 130 56" fill="none" xmlns="http://www.w3.org/2000/svg">
<path d="M52 28.5042C52 25.7519 48.5157 23.1435 43.1737 21.526C44.4064 16.1398 43.8585 11.8547 41.4444 10.4827C40.8879 10.1609 40.2373 10.0085 39.5267 10.0085V11.897C39.9205 11.897 40.2373 11.9732 40.5026 12.1172C41.6669 12.7778 42.172 15.293 41.7782 18.528C41.6841 19.3241 41.53 20.1625 41.3416 21.0179C39.6637 20.6114 37.8316 20.298 35.9054 20.0948C34.7497 18.528 33.5512 17.1053 32.3441 15.8604C35.1349 13.2943 37.7546 11.8885 39.5353 11.8885V10C37.181 10 34.0991 11.6599 30.9829 14.5393C27.8667 11.6768 24.7848 10.0339 22.4305 10.0339V11.9224C24.2026 11.9224 26.8308 13.3198 29.6217 15.8688C28.4232 17.1138 27.2246 18.528 26.086 20.0948C24.1512 20.298 22.3192 20.6114 20.6413 21.0263C20.4444 20.1794 20.2988 19.358 20.1961 18.5704C19.7937 15.3353 20.2903 12.8201 21.446 12.1511C21.7028 11.9986 22.0367 11.9309 22.4305 11.9309V10.0423C21.7114 10.0423 21.0607 10.1948 20.4957 10.5166C18.0901 11.8885 17.5508 16.1653 18.7921 21.5344C13.4672 23.1604 10 25.7604 10 28.5042C10 31.2566 13.4843 33.865 18.8263 35.4825C17.5936 40.8686 18.1415 45.1538 20.5556 46.5257C21.1121 46.8476 21.7627 47 22.4819 47C24.8361 47 27.9181 45.3401 31.0342 42.4607C34.1504 45.3232 37.2324 46.9661 39.5866 46.9661C40.3057 46.9661 40.9564 46.8137 41.5214 46.4919C43.927 45.1199 44.4664 40.8432 43.225 35.474C48.5328 33.8565 52 31.2481 52 28.5042ZM40.8536 22.8556C40.5369 23.948 40.1431 25.0744 39.6979 26.2007C39.3469 25.5232 38.9788 24.8457 38.5764 24.1682C38.1826 23.4907 37.7632 22.8302 37.3437 22.1865C38.5593 22.3644 39.7322 22.5846 40.8536 22.8556ZM36.9327 31.8748C36.265 33.0181 35.5801 34.1021 34.8695 35.1099C33.594 35.22 32.3013 35.2792 31 35.2792C29.7073 35.2792 28.4146 35.22 27.1476 35.1183C26.437 34.1105 25.7436 33.035 25.0758 31.9002C24.4252 30.7908 23.8345 29.6645 23.2951 28.5296C23.8259 27.3948 24.4252 26.26 25.0673 25.1506C25.735 24.0073 26.4199 22.9233 27.1305 21.9155C28.406 21.8054 29.6987 21.7462 31 21.7462C32.2927 21.7462 33.5854 21.8054 34.8524 21.9071C35.563 22.9149 36.2564 23.9904 36.9242 25.1252C37.5748 26.2346 38.1655 27.361 38.7048 28.4958C38.1655 29.6306 37.5748 30.7654 36.9327 31.8748ZM39.6979 30.7739C40.1602 31.9087 40.554 33.0435 40.8793 34.1444C39.7578 34.4154 38.5764 34.6441 37.3522 34.8219C37.7717 34.1698 38.1912 33.5008 38.585 32.8148C38.9788 32.1373 39.3469 31.4514 39.6979 30.7739ZM31.0171 39.81C30.221 38.997 29.4248 38.0909 28.6372 37.1C29.4077 37.1339 30.1953 37.1593 30.9914 37.1593C31.7962 37.1593 32.5923 37.1424 33.3714 37.1C32.6009 38.0909 31.8047 38.997 31.0171 39.81ZM24.6478 34.8219C23.4321 34.6441 22.2593 34.4239 21.1378 34.1529C21.4545 33.0604 21.8483 31.9341 22.2935 30.8077C22.6445 31.4852 23.0126 32.1627 23.415 32.8402C23.8174 33.5177 24.2283 34.1783 24.6478 34.8219ZM30.9743 17.1984C31.7705 18.0114 32.5667 18.9176 33.3543 19.9084C32.5838 19.8746 31.7962 19.8492 31 19.8492C30.1953 19.8492 29.3991 19.8661 28.6201 19.9084C29.3905 18.9176 30.1867 18.0114 30.9743 17.1984ZM24.6392 22.1865C24.2197 22.8386 23.8002 23.5077 23.4064 24.1936C23.0126 24.8711 22.6445 25.5486 22.2935 26.2261C21.8312 25.0913 21.4374 23.9565 21.1121 22.8556C22.2336 22.593 23.415 22.3644 24.6392 22.1865ZM16.8916 32.7894C13.861 31.5106 11.9005 29.8338 11.9005 28.5042C11.9005 27.1746 13.861 25.4894 16.8916 24.219C17.6278 23.9057 18.4325 23.6262 19.2629 23.3637C19.7509 25.0236 20.393 26.7512 21.1892 28.5212C20.4015 30.2827 19.768 32.0018 19.2886 33.6532C18.4411 33.3907 17.6364 33.1028 16.8916 32.7894ZM21.4974 44.8913C20.3331 44.2307 19.828 41.7155 20.2218 38.4804C20.3159 37.6844 20.47 36.846 20.6584 35.9906C22.3363 36.3971 24.1684 36.7105 26.0946 36.9137C27.2503 38.4804 28.4488 39.9032 29.6559 41.1481C26.8651 43.7141 24.2454 45.1199 22.4647 45.1199C22.0795 45.1115 21.7542 45.0352 21.4974 44.8913ZM41.8039 38.4381C42.2063 41.6731 41.7097 44.1884 40.554 44.8574C40.2972 45.0098 39.9633 45.0776 39.5695 45.0776C37.7974 45.0776 35.1692 43.6802 32.3783 41.1311C33.5768 39.8862 34.7754 38.472 35.914 36.9052C37.8488 36.702 39.6808 36.3886 41.3587 35.9737C41.5556 36.829 41.7097 37.6505 41.8039 38.4381ZM45.0999 32.7894C44.3636 33.1028 43.5589 33.3822 42.7285 33.6448C42.2405 31.9849 41.5984 30.2573 40.8023 28.4873C41.5899 26.7258 42.2234 25.0066 42.7028 23.3552C43.5503 23.6178 44.3551 23.9057 45.1084 24.219C48.139 25.4978 50.0995 27.1746 50.0995 28.5042C50.0909 29.8338 48.1305 31.5191 45.0999 32.7894Z" fill="#0D0C22" fill-opacity="0.63"/>
<path d="M76.4219 36H74.0781L71.2656 31.2891C71.0078 30.8516 70.7578 30.4805 70.5156 30.1758C70.2734 29.8633 70.0234 29.6094 69.7656 29.4141C69.5156 29.2188 69.2422 29.0781 68.9453 28.9922C68.6562 28.8984 68.3281 28.8516 67.9609 28.8516H66.3438V36H64.375V19.1953H69.3906C70.125 19.1953 70.8008 19.2891 71.418 19.4766C72.043 19.6562 72.582 19.9336 73.0352 20.3086C73.4961 20.6836 73.8555 21.1523 74.1133 21.7148C74.3711 22.2695 74.5 22.9219 74.5 23.6719C74.5 24.2578 74.4102 24.7969 74.2305 25.2891C74.0586 25.7734 73.8086 26.207 73.4805 26.5898C73.1602 26.9727 72.7695 27.3008 72.3086 27.5742C71.8555 27.8398 71.3438 28.0469 70.7734 28.1953V28.2422C71.0547 28.3672 71.2969 28.5117 71.5 28.6758C71.7109 28.832 71.9102 29.0195 72.0977 29.2383C72.2852 29.457 72.4688 29.707 72.6484 29.9883C72.8359 30.2617 73.043 30.582 73.2695 30.9492L76.4219 36ZM66.3438 20.9766V27.0703H69.0156C69.5078 27.0703 69.9609 26.9961 70.375 26.8477C70.7969 26.6992 71.1602 26.4883 71.4648 26.2148C71.7695 25.9336 72.0078 25.5938 72.1797 25.1953C72.3516 24.7891 72.4375 24.3359 72.4375 23.8359C72.4375 22.9375 72.1445 22.2383 71.5586 21.7383C70.9805 21.2305 70.1406 20.9766 69.0391 20.9766H66.3438ZM87.4258 30.4805H78.9531C78.9844 31.8164 79.3438 32.8477 80.0312 33.5742C80.7188 34.3008 81.6641 34.6641 82.8672 34.6641C84.2188 34.6641 85.4609 34.2188 86.5938 33.3281V35.1328C85.5391 35.8984 84.1445 36.2812 82.4102 36.2812C80.7148 36.2812 79.3828 35.7383 78.4141 34.6523C77.4453 33.5586 76.9609 32.0234 76.9609 30.0469C76.9609 28.1797 77.4883 26.6602 78.543 25.4883C79.6055 24.3086 80.9219 23.7188 82.4922 23.7188C84.0625 23.7188 85.2773 24.2266 86.1367 25.2422C86.9961 26.2578 87.4258 27.668 87.4258 29.4727V30.4805ZM85.457 28.8516C85.4492 27.7422 85.1797 26.8789 84.6484 26.2617C84.125 25.6445 83.3945 25.3359 82.457 25.3359C81.5508 25.3359 80.7812 25.6602 80.1484 26.3086C79.5156 26.957 79.125 27.8047 78.9766 28.8516H85.457ZM98.9336 36H97.0117V34.125H96.9648C96.1289 35.5625 94.8984 36.2812 93.2734 36.2812C92.0781 36.2812 91.1406 35.9648 90.4609 35.332C89.7891 34.6992 89.4531 33.8594 89.4531 32.8125C89.4531 30.5703 90.7734 29.2656 93.4141 28.8984L97.0117 28.3945C97.0117 26.3555 96.1875 25.3359 94.5391 25.3359C93.0938 25.3359 91.7891 25.8281 90.625 26.8125V24.8438C91.8047 24.0938 93.1641 23.7188 94.7031 23.7188C97.5234 23.7188 98.9336 25.2109 98.9336 28.1953V36ZM97.0117 29.9297L94.1172 30.3281C93.2266 30.4531 92.5547 30.6758 92.1016 30.9961C91.6484 31.3086 91.4219 31.8672 91.4219 32.6719C91.4219 33.2578 91.6289 33.7383 92.043 34.1133C92.4648 34.4805 93.0234 34.6641 93.7188 34.6641C94.6719 34.6641 95.457 34.332 96.0742 33.668C96.6992 32.9961 97.0117 32.1484 97.0117 31.125V29.9297ZM110.734 35.4492C109.812 36.0039 108.719 36.2812 107.453 36.2812C105.742 36.2812 104.359 35.7266 103.305 34.6172C102.258 33.5 101.734 32.0547 101.734 30.2812C101.734 28.3047 102.301 26.7188 103.434 25.5234C104.566 24.3203 106.078 23.7188 107.969 23.7188C109.023 23.7188 109.953 23.9141 110.758 24.3047V26.2734C109.867 25.6484 108.914 25.3359 107.898 25.3359C106.672 25.3359 105.664 25.7773 104.875 26.6602C104.094 27.5352 103.703 28.6875 103.703 30.1172C103.703 31.5234 104.07 32.6328 104.805 33.4453C105.547 34.2578 106.539 34.6641 107.781 34.6641C108.828 34.6641 109.812 34.3164 110.734 33.6211V35.4492ZM119.207 35.8828C118.754 36.1328 118.156 36.2578 117.414 36.2578C115.312 36.2578 114.262 35.0859 114.262 32.7422V25.6406H112.199V24H114.262V21.0703L116.184 20.4492V24H119.207V25.6406H116.184V32.4023C116.184 33.207 116.32 33.7812 116.594 34.125C116.867 34.4688 117.32 34.6406 117.953 34.6406C118.438 34.6406 118.855 34.5078 119.207 34.2422V35.8828Z" fill="#0D0C22" fill-opacity="0.63"/>
</svg>
