<svg width="214" height="52" viewBox="0 0 214 52" fill="none" xmlns="http://www.w3.org/2000/svg">
<g clip-path="url(#clip0_317_273)">
<mask id="mask0_317_273" style="mask-type:luminance" maskUnits="userSpaceOnUse" x="10" y="10" width="54" height="33">
<path d="M10 10H64V42.4H10V10Z" fill="white"/>
</mask>
<g mask="url(#mask0_317_273)">
<path fill-rule="evenodd" clip-rule="evenodd" d="M37 10C29.8 10 25.3 13.6 23.5 20.8C26.2 17.2 29.35 15.85 32.95 16.75C35.004 17.263 36.472 18.754 38.097 20.403C40.744 23.09 43.808 26.2 50.5 26.2C57.7 26.2 62.2 22.6 64 15.4C61.3 19 58.15 20.35 54.55 19.45C52.496 18.937 51.028 17.446 49.403 15.797C46.756 13.11 43.692 10 37 10ZM23.5 26.2C16.3 26.2 11.8 29.8 10 37C12.7 33.4 15.85 32.05 19.45 32.95C21.504 33.464 22.972 34.954 24.597 36.603C27.244 39.29 30.308 42.4 37 42.4C44.2 42.4 48.7 38.8 50.5 31.6C47.8 35.2 44.65 36.55 41.05 35.65C38.996 35.137 37.528 33.646 35.903 31.997C33.256 29.31 30.192 26.2 23.5 26.2Z" fill="#0D0C22" fill-opacity="0.63"/>
</g>
</g>
<path d="M82.3004 19.9091V21.9545H75.1499V19.9091H82.3004ZM77.0675 16.7727H79.6158V29.1562C79.6158 29.6506 79.6896 30.0227 79.8374 30.2727C79.9851 30.517 80.1754 30.6847 80.4084 30.7756C80.647 30.8608 80.9055 30.9034 81.1839 30.9034C81.3885 30.9034 81.5675 30.8892 81.7209 30.8608C81.8743 30.8324 81.9936 30.8097 82.0788 30.7926L82.5391 32.8977C82.3913 32.9545 82.1811 33.0114 81.9084 33.0682C81.6357 33.1307 81.2947 33.1648 80.8857 33.1705C80.2152 33.1818 79.5902 33.0625 79.0107 32.8125C78.4311 32.5625 77.9624 32.1761 77.6044 31.6534C77.2464 31.1307 77.0675 30.4744 77.0675 29.6847V16.7727ZM88.929 33.2898C88.0994 33.2898 87.3494 33.1364 86.679 32.8295C86.0085 32.517 85.4773 32.0653 85.0852 31.4744C84.6989 30.8835 84.5057 30.1591 84.5057 29.3011C84.5057 28.5625 84.6477 27.9545 84.9318 27.4773C85.2159 27 85.5994 26.6222 86.0824 26.3438C86.5653 26.0653 87.1051 25.8551 87.7017 25.7131C88.2983 25.571 88.9063 25.4631 89.5256 25.3892C90.3097 25.2983 90.946 25.2244 91.4347 25.1676C91.9233 25.1051 92.2784 25.0057 92.5 24.8693C92.7216 24.733 92.8324 24.5114 92.8324 24.2045V24.1449C92.8324 23.4006 92.6222 22.8239 92.2017 22.4148C91.7869 22.0057 91.1676 21.8011 90.3438 21.8011C89.4858 21.8011 88.8097 21.9915 88.3153 22.3722C87.8267 22.7472 87.4886 23.1648 87.3011 23.625L84.9062 23.0795C85.1903 22.2841 85.6051 21.642 86.1506 21.1534C86.7017 20.6591 87.3352 20.3011 88.0511 20.0795C88.767 19.8523 89.5199 19.7386 90.3097 19.7386C90.8324 19.7386 91.3864 19.8011 91.9716 19.9261C92.5625 20.0455 93.1136 20.267 93.625 20.5909C94.142 20.9148 94.5653 21.3778 94.8949 21.9801C95.2244 22.5767 95.3892 23.3523 95.3892 24.3068V33H92.9006V31.2102H92.7983C92.6335 31.5398 92.3864 31.8636 92.0568 32.1818C91.7273 32.5 91.304 32.7642 90.7869 32.9744C90.2699 33.1847 89.6506 33.2898 88.929 33.2898ZM89.483 31.2443C90.1875 31.2443 90.7898 31.1051 91.2898 30.8267C91.7955 30.5483 92.179 30.1847 92.4403 29.7358C92.7074 29.2812 92.8409 28.7955 92.8409 28.2784V26.5909C92.75 26.6818 92.5739 26.767 92.3125 26.8466C92.0568 26.9205 91.7642 26.9858 91.4347 27.0426C91.1051 27.0937 90.7841 27.142 90.4716 27.1875C90.1591 27.2273 89.8977 27.2614 89.6875 27.2898C89.1932 27.3523 88.7415 27.4574 88.3324 27.6051C87.929 27.7528 87.6051 27.9659 87.3608 28.2443C87.1222 28.517 87.0028 28.8807 87.0028 29.3352C87.0028 29.9659 87.2358 30.4432 87.7017 30.767C88.1676 31.0852 88.7614 31.2443 89.483 31.2443ZM98.7834 33V19.9091H101.332V33H98.7834ZM100.07 17.8892C99.6271 17.8892 99.2464 17.7415 98.9283 17.446C98.6158 17.1449 98.4595 16.7869 98.4595 16.3722C98.4595 15.9517 98.6158 15.5937 98.9283 15.2983C99.2464 14.9972 99.6271 14.8466 100.07 14.8466C100.513 14.8466 100.891 14.9972 101.204 15.2983C101.522 15.5937 101.681 15.9517 101.681 16.3722C101.681 16.7869 101.522 17.1449 101.204 17.446C100.891 17.7415 100.513 17.8892 100.07 17.8892ZM107.308 15.5455V33H104.76V15.5455H107.308ZM113.575 33L109.722 19.9091H112.356L114.921 29.5227H115.049L117.623 19.9091H120.256L122.813 29.4801H122.941L125.489 19.9091H128.123L124.279 33H121.68L119.021 23.5483H118.825L116.165 33H113.575ZM130.541 33V19.9091H133.089V33H130.541ZM131.828 17.8892C131.385 17.8892 131.004 17.7415 130.686 17.446C130.374 17.1449 130.217 16.7869 130.217 16.3722C130.217 15.9517 130.374 15.5937 130.686 15.2983C131.004 14.9972 131.385 14.8466 131.828 14.8466C132.271 14.8466 132.649 14.9972 132.962 15.2983C133.28 15.5937 133.439 15.9517 133.439 16.3722C133.439 16.7869 133.28 17.1449 132.962 17.446C132.649 17.7415 132.271 17.8892 131.828 17.8892ZM139.066 25.2273V33H136.518V19.9091H138.964V22.0398H139.126C139.427 21.3466 139.898 20.7898 140.54 20.3693C141.188 19.9489 142.004 19.7386 142.987 19.7386C143.879 19.7386 144.66 19.9261 145.33 20.3011C146.001 20.6705 146.521 21.2216 146.89 21.9545C147.259 22.6875 147.444 23.5937 147.444 24.6733V33H144.896V24.9801C144.896 24.0312 144.648 23.2898 144.154 22.7557C143.66 22.2159 142.981 21.946 142.117 21.946C141.526 21.946 141.001 22.0739 140.54 22.3295C140.086 22.5852 139.725 22.9602 139.458 23.4545C139.197 23.9432 139.066 24.5341 139.066 25.2273ZM155.762 33.2557C154.705 33.2557 153.762 32.9858 152.933 32.446C152.109 31.9006 151.461 31.125 150.989 30.1193C150.523 29.108 150.29 27.8949 150.29 26.4801C150.29 25.0653 150.526 23.8551 150.998 22.8494C151.475 21.8437 152.129 21.0739 152.958 20.5398C153.788 20.0057 154.728 19.7386 155.779 19.7386C156.592 19.7386 157.245 19.875 157.739 20.1477C158.239 20.4148 158.626 20.7273 158.898 21.0852C159.177 21.4432 159.393 21.7585 159.546 22.0312H159.7V15.5455H162.248V33H159.759V30.9631H159.546C159.393 31.2415 159.171 31.5597 158.881 31.9176C158.597 32.2756 158.205 32.5881 157.705 32.8551C157.205 33.1222 156.558 33.2557 155.762 33.2557ZM156.325 31.0824C157.058 31.0824 157.677 30.8892 158.183 30.5028C158.694 30.1108 159.08 29.5682 159.342 28.875C159.609 28.1818 159.742 27.375 159.742 26.4545C159.742 25.5455 159.612 24.75 159.35 24.0682C159.089 23.3864 158.705 22.8551 158.2 22.4744C157.694 22.0937 157.069 21.9034 156.325 21.9034C155.558 21.9034 154.918 22.1023 154.407 22.5C153.896 22.8977 153.509 23.4403 153.248 24.1278C152.992 24.8153 152.864 25.5909 152.864 26.4545C152.864 27.3295 152.995 28.1165 153.256 28.8153C153.518 29.5142 153.904 30.0682 154.415 30.4773C154.933 30.8807 155.569 31.0824 156.325 31.0824ZM171.399 33.2642C170.132 33.2642 169.041 32.9773 168.126 32.4034C167.217 31.8239 166.518 31.0256 166.03 30.0085C165.541 28.9915 165.297 27.8267 165.297 26.5142C165.297 25.1847 165.547 24.0114 166.047 22.9943C166.547 21.9716 167.251 21.1733 168.161 20.5994C169.07 20.0256 170.141 19.7386 171.374 19.7386C172.368 19.7386 173.254 19.9233 174.033 20.2926C174.811 20.6562 175.439 21.1676 175.916 21.8267C176.399 22.4858 176.686 23.2557 176.777 24.1364H174.297C174.161 23.5227 173.848 22.9943 173.359 22.5511C172.876 22.108 172.229 21.8864 171.416 21.8864C170.706 21.8864 170.084 22.0739 169.55 22.4489C169.021 22.8182 168.609 23.3466 168.314 24.0341C168.018 24.7159 167.871 25.5227 167.871 26.4545C167.871 27.4091 168.016 28.233 168.305 28.9261C168.595 29.6193 169.004 30.1562 169.533 30.5369C170.067 30.9176 170.695 31.108 171.416 31.108C171.899 31.108 172.337 31.0199 172.729 30.8438C173.126 30.6619 173.459 30.4034 173.726 30.0682C173.999 29.733 174.189 29.3295 174.297 28.858H176.777C176.686 29.7045 176.411 30.4602 175.95 31.125C175.49 31.7898 174.874 32.3125 174.101 32.6932C173.334 33.0739 172.433 33.2642 171.399 33.2642ZM189.312 23.1051L187.002 23.5142C186.906 23.2187 186.752 22.9375 186.542 22.6705C186.337 22.4034 186.059 22.1847 185.707 22.0142C185.354 21.8437 184.914 21.7585 184.386 21.7585C183.664 21.7585 183.062 21.9205 182.579 22.2443C182.096 22.5625 181.854 22.9744 181.854 23.4801C181.854 23.9176 182.016 24.2699 182.34 24.5369C182.664 24.804 183.187 25.0227 183.908 25.1932L185.988 25.6705C187.192 25.9489 188.09 26.3778 188.681 26.9574C189.272 27.5369 189.567 28.2898 189.567 29.2159C189.567 30 189.34 30.6989 188.886 31.3125C188.437 31.9205 187.809 32.3977 187.002 32.7443C186.201 33.0909 185.272 33.2642 184.215 33.2642C182.749 33.2642 181.553 32.9517 180.627 32.3267C179.701 31.696 179.133 30.8011 178.923 29.642L181.386 29.267C181.539 29.9091 181.854 30.3949 182.332 30.7244C182.809 31.0483 183.431 31.2102 184.198 31.2102C185.033 31.2102 185.701 31.0369 186.201 30.6903C186.701 30.3381 186.951 29.9091 186.951 29.4034C186.951 28.9943 186.798 28.6506 186.491 28.3722C186.19 28.0937 185.727 27.8835 185.102 27.7415L182.886 27.2557C181.664 26.9773 180.761 26.5341 180.175 25.9261C179.596 25.3182 179.306 24.5483 179.306 23.6165C179.306 22.8437 179.522 22.1676 179.954 21.5881C180.386 21.0085 180.982 20.5568 181.744 20.233C182.505 19.9034 183.377 19.7386 184.36 19.7386C185.775 19.7386 186.888 20.0455 187.701 20.6591C188.513 21.267 189.05 22.0824 189.312 23.1051ZM202.179 23.1051L199.869 23.5142C199.773 23.2187 199.619 22.9375 199.409 22.6705C199.205 22.4034 198.926 22.1847 198.574 22.0142C198.222 21.8437 197.781 21.7585 197.253 21.7585C196.531 21.7585 195.929 21.9205 195.446 22.2443C194.963 22.5625 194.722 22.9744 194.722 23.4801C194.722 23.9176 194.884 24.2699 195.207 24.5369C195.531 24.804 196.054 25.0227 196.776 25.1932L198.855 25.6705C200.06 25.9489 200.957 26.3778 201.548 26.9574C202.139 27.5369 202.435 28.2898 202.435 29.2159C202.435 30 202.207 30.6989 201.753 31.3125C201.304 31.9205 200.676 32.3977 199.869 32.7443C199.068 33.0909 198.139 33.2642 197.082 33.2642C195.616 33.2642 194.42 32.9517 193.494 32.3267C192.568 31.696 192 30.8011 191.79 29.642L194.253 29.267C194.406 29.9091 194.722 30.3949 195.199 30.7244C195.676 31.0483 196.298 31.2102 197.065 31.2102C197.901 31.2102 198.568 31.0369 199.068 30.6903C199.568 30.3381 199.818 29.9091 199.818 29.4034C199.818 28.9943 199.665 28.6506 199.358 28.3722C199.057 28.0937 198.594 27.8835 197.969 27.7415L195.753 27.2557C194.531 26.9773 193.628 26.5341 193.043 25.9261C192.463 25.3182 192.173 24.5483 192.173 23.6165C192.173 22.8437 192.389 22.1676 192.821 21.5881C193.253 21.0085 193.849 20.5568 194.611 20.233C195.372 19.9034 196.244 19.7386 197.227 19.7386C198.642 19.7386 199.756 20.0455 200.568 20.6591C201.381 21.267 201.918 22.0824 202.179 23.1051Z" fill="black" fill-opacity="0.63"/>
<defs>
<clipPath id="clip0_317_273">
<rect width="54" height="33" fill="white" transform="translate(10 10)"/>
</clipPath>
</defs>
</svg>
