<svg width="122" height="42" viewBox="0 0 122 42" fill="none" xmlns="http://www.w3.org/2000/svg">
<g clip-path="url(#clip0_317_323)">
<path d="M37.6157 15.0095L21.9085 42.6993C21.5842 43.271 20.751 43.2744 20.4219 42.7055L4.40328 15.0122C4.04467 14.3922 4.58242 13.6412 5.29504 13.7668L21.019 16.5376C21.1193 16.5553 21.222 16.5551 21.3223 16.5371L36.7174 13.7708C37.4277 13.6432 37.968 14.3883 37.6157 15.0095Z" fill="url(#paint0_linear_317_323)" fill-opacity="0.63"/>
<path d="M28.5088 10.1326L16.885 12.3781C16.694 12.415 16.5525 12.5746 16.541 12.7661L15.826 24.6715C15.8091 24.9519 16.0704 25.1695 16.348 25.1064L19.5842 24.3701C19.887 24.3013 20.1606 24.5642 20.0984 24.8644L19.1369 29.506C19.0722 29.8184 19.3697 30.0855 19.6791 29.9928L21.678 29.3941C21.9878 29.3014 22.2856 29.5692 22.22 29.8819L20.6921 37.1728C20.5965 37.6288 21.2118 37.8775 21.4684 37.4865L21.6398 37.2254L31.1115 18.5904C31.2701 18.2783 30.9966 17.9226 30.649 17.9887L27.3178 18.6225C27.0048 18.682 26.7385 18.3946 26.8268 18.0927L29.001 10.6622C29.0894 10.3598 28.8221 10.0721 28.5088 10.1326Z" fill="url(#paint1_linear_317_323)"/>
<path d="M56.2039 33L48.8119 16.2H51.4039L58.1959 31.704H56.7079L63.5479 16.2H65.9479L58.5799 33H56.2039ZM68.0903 33V16.2H70.4903V33H68.0903ZM78.856 33V18.288H73.096V16.2H86.992V18.288H81.232V33H78.856ZM91.7899 23.448H100.43V25.488H91.7899V23.448ZM92.0059 30.912H101.798V33H89.6059V16.2H101.462V18.288H92.0059V30.912Z" fill="#0D0C22" fill-opacity="0.63"/>
</g>
<defs>
<linearGradient id="paint0_linear_317_323" x1="4.01217" y1="12.7772" x2="23.2013" y2="39.2115" gradientUnits="userSpaceOnUse">
<stop offset="1" stop-color="#211924"/>
</linearGradient>
<linearGradient id="paint1_linear_317_323" x1="20.1161" y1="10.7423" x2="23.5551" y2="34.6716" gradientUnits="userSpaceOnUse">
<stop stop-color="#68644F"/>
<stop offset="0.0001" stop-color="#B8A887"/>
<stop offset="0.0002" stop-color="#BEAD8B"/>
<stop offset="1" stop-color="#CAB793"/>
</linearGradient>
<clipPath id="clip0_317_323">
<rect width="122" height="42" fill="white"/>
</clipPath>
</defs>
</svg>
